<svg width="0" class="hidden">
  <symbol xmlns="http://www.w3.org/2000/svg" viewBox="0 0 640 640" id="file-invoice-dollar">
    <path d="M128 128C128 92.7 156.7 64 192 64L341.5 64C358.5 64 374.8 70.7 386.8 82.7L493.3 189.3C505.3 201.3 512 217.6 512 234.6L512 512C512 547.3 483.3 576 448 576L192 576C156.7 576 128 547.3 128 512L128 128zM336 122.5L336 216C336 229.3 346.7 240 360 240L453.5 240L336 122.5zM192 152C192 165.3 202.7 176 216 176L264 176C277.3 176 288 165.3 288 152C288 138.7 277.3 128 264 128L216 128C202.7 128 192 138.7 192 152zM192 248C192 261.3 202.7 272 216 272L264 272C277.3 272 288 261.3 288 248C288 234.7 277.3 224 264 224L216 224C202.7 224 192 234.7 192 248zM304 324L304 328C275.2 328.3 252 351.7 252 380.5C252 406.2 270.5 428.1 295.9 432.3L337.6 439.3C343.6 440.3 348 445.5 348 451.6C348 458.5 342.4 464.1 335.5 464.1L280 464C269 464 260 473 260 484C260 495 269 504 280 504L304 504L304 508C304 519 313 528 324 528C335 528 344 519 344 508L344 503.3C369 499.2 388 477.6 388 451.5C388 425.8 369.5 403.9 344.1 399.7L302.4 392.7C296.4 391.7 292 386.5 292 380.4C292 373.5 297.6 367.9 304.5 367.9L352 367.9C363 367.9 372 358.9 372 347.9C372 336.9 363 327.9 352 327.9L344 327.9L344 323.9C344 312.9 335 303.9 324 303.9C313 303.9 304 312.9 304 323.9z"></path>
  </symbol>
  <symbol xmlns="http://www.w3.org/2000/svg" viewBox="0 0 640 640" id="sack-dollar">
    <path d="M392 176L248 176L210.7 101.5C208.9 97.9 208 93.9 208 89.9C208 75.6 219.6 64 233.9 64L406.1 64C420.4 64 432 75.6 432 89.9C432 93.9 431.1 97.9 429.3 101.5L392 176zM233.6 224L406.4 224L455.1 264.6C521.6 320 560 402 560 488.5C560 536.8 520.8 576 472.5 576L167.4 576C119.2 576 80 536.8 80 488.5C80 402 118.4 320 184.9 264.6L233.6 224zM324 288C313 288 304 297 304 308L304 312C275.2 312.3 252 335.7 252 364.5C252 390.2 270.5 412.1 295.9 416.3L337.6 423.3C343.6 424.3 348 429.5 348 435.6C348 442.5 342.4 448.1 335.5 448.1L280 448C269 448 260 457 260 468C260 479 269 488 280 488L304 488L304 492C304 503 313 512 324 512C335 512 344 503 344 492L344 487.3C369 483.2 388 461.6 388 435.5C388 409.8 369.5 387.9 344.1 383.7L302.4 376.7C296.4 375.7 292 370.5 292 364.4C292 357.5 297.6 351.9 304.5 351.9L352 351.9C363 351.9 372 342.9 372 331.9C372 320.9 363 311.9 352 311.9L344 311.9L344 307.9C344 296.9 335 287.9 324 287.9z"></path>
  </symbol>
  <symbol xmlns="http://www.w3.org/2000/svg" viewBox="0 0 640 640" id="credit-card">
    <path d="M64 192L64 224L576 224L576 192C576 156.7 547.3 128 512 128L128 128C92.7 128 64 156.7 64 192zM64 272L64 448C64 483.3 92.7 512 128 512L512 512C547.3 512 576 483.3 576 448L576 272L64 272zM128 424C128 410.7 138.7 400 152 400L200 400C213.3 400 224 410.7 224 424C224 437.3 213.3 448 200 448L152 448C138.7 448 128 437.3 128 424zM272 424C272 410.7 282.7 400 296 400L360 400C373.3 400 384 410.7 384 424C384 437.3 373.3 448 360 448L296 448C282.7 448 272 437.3 272 424z"></path>
  </symbol>
  <symbol xmlns="http://www.w3.org/2000/svg" viewBox="0 0 640 640" id="circle-info">
    <path d="M320 576C461.4 576 576 461.4 576 320C576 178.6 461.4 64 320 64C178.6 64 64 178.6 64 320C64 461.4 178.6 576 320 576zM288 224C288 206.3 302.3 192 320 192C337.7 192 352 206.3 352 224C352 241.7 337.7 256 320 256C302.3 256 288 241.7 288 224zM280 288L328 288C341.3 288 352 298.7 352 312L352 400L360 400C373.3 400 384 410.7 384 424C384 437.3 373.3 448 360 448L280 448C266.7 448 256 437.3 256 424C256 410.7 266.7 400 280 400L304 400L304 336L280 336C266.7 336 256 325.3 256 312C256 298.7 266.7 288 280 288z"></path>
  </symbol>
  <symbol xmlns="http://www.w3.org/2000/svg" viewBox="0 0 640 640" id="location-dot">
    <path d="M128 252.6C128 148.4 214 64 320 64C426 64 512 148.4 512 252.6C512 371.9 391.8 514.9 341.6 569.4C329.8 582.2 310.1 582.2 298.3 569.4C248.1 514.9 127.9 371.9 127.9 252.6zM320 320C355.3 320 384 291.3 384 256C384 220.7 355.3 192 320 192C284.7 192 256 220.7 256 256C256 291.3 284.7 320 320 320z"></path>
  </symbol>
  <symbol xmlns="http://www.w3.org/2000/svg" viewBox="0 0 640 640" id="bell">
    <path d="M320 64C302.3 64 288 78.3 288 96L288 99.2C215 114 160 178.6 160 256L160 277.7C160 325.8 143.6 372.5 113.6 410.1L103.8 422.3C98.7 428.6 96 436.4 96 444.5C96 464.1 111.9 480 131.5 480L508.4 480C528 480 543.9 464.1 543.9 444.5C543.9 436.4 541.2 428.6 536.1 422.3L526.3 410.1C496.4 372.5 480 325.8 480 277.7L480 256C480 178.6 425 114 352 99.2L352 96C352 78.3 337.7 64 320 64zM258 528C265.1 555.6 290.2 576 320 576C349.8 576 374.9 555.6 382 528L258 528z"></path>
  </symbol>
  <symbol xmlns="http://www.w3.org/2000/svg" viewBox="0 0 640 640" id="gear">
    <path d="M259.1 73.5C262.1 58.7 275.2 48 290.4 48L350.2 48C365.4 48 378.5 58.7 381.5 73.5L396 143.5C410.1 149.5 423.3 157.2 435.3 166.3L503.1 143.8C517.5 139 533.3 145 540.9 158.2L570.8 210C578.4 223.2 575.7 239.8 564.3 249.9L511 297.3C511.9 304.7 512.3 312.3 512.3 320C512.3 327.7 511.8 335.3 511 342.7L564.4 390.2C575.8 400.3 578.4 417 570.9 430.1L541 481.9C533.4 495 517.6 501.1 503.2 496.3L435.4 473.8C423.3 482.9 410.1 490.5 396.1 496.6L381.7 566.5C378.6 581.4 365.5 592 350.4 592L290.6 592C275.4 592 262.3 581.3 259.3 566.5L244.9 496.6C230.8 490.6 217.7 482.9 205.6 473.8L137.5 496.3C123.1 501.1 107.3 495.1 99.7 481.9L69.8 430.1C62.2 416.9 64.9 400.3 76.3 390.2L129.7 342.7C128.8 335.3 128.4 327.7 128.4 320C128.4 312.3 128.9 304.7 129.7 297.3L76.3 249.8C64.9 239.7 62.3 223 69.8 209.9L99.7 158.1C107.3 144.9 123.1 138.9 137.5 143.7L205.3 166.2C217.4 157.1 230.6 149.5 244.6 143.4L259.1 73.5zM320.3 400C364.5 399.8 400.2 363.9 400 319.7C399.8 275.5 363.9 239.8 319.7 240C275.5 240.2 239.8 276.1 240 320.3C240.2 364.5 276.1 400.2 320.3 400z"></path>
  </symbol>
  <symbol xmlns="http://www.w3.org/2000/svg" viewBox="0 0 640 640" id="user">
    <path d="M320 312C386.3 312 440 258.3 440 192C440 125.7 386.3 72 320 72C253.7 72 200 125.7 200 192C200 258.3 253.7 312 320 312zM290.3 368C191.8 368 112 447.8 112 546.3C112 562.7 125.3 576 141.7 576L498.3 576C514.7 576 528 562.7 528 546.3C528 447.8 448.2 368 349.7 368L290.3 368z"></path>
  </symbol>
  <symbol xmlns="http://www.w3.org/2000/svg" viewBox="0 0 640 640" id="bell-concierge">
    <path d="M280 128C266.7 128 256 138.7 256 152C256 165.3 266.7 176 280 176L296 176L296 209.3C188.8 220.7 104.2 307.7 96.6 416L543.5 416C535.8 307.7 451.2 220.7 344 209.3L344 176L360 176C373.3 176 384 165.3 384 152C384 138.7 373.3 128 360 128L280 128zM88 464C74.7 464 64 474.7 64 488C64 501.3 74.7 512 88 512L552 512C565.3 512 576 501.3 576 488C576 474.7 565.3 464 552 464L88 464z"></path>
  </symbol>
</svg>






