<svg width="0" class="hidden">
  <symbol xmlns="http://www.w3.org/2000/svg" viewBox="0 0 640 640" id="check">
    <path d="M530.8 134.1C545.1 144.5 548.3 164.5 537.9 178.8L281.9 530.8C276.4 538.4 267.9 543.1 258.5 543.9C249.1 544.7 240 541.2 233.4 534.6L105.4 406.6C92.9 394.1 92.9 373.8 105.4 361.3C117.9 348.8 138.2 348.8 150.7 361.3L252.2 462.8L486.2 141.1C496.6 126.8 516.6 123.6 530.9 134z"></path>
  </symbol>
  <symbol xmlns="http://www.w3.org/2000/svg" viewBox="0 0 640 640" id="lock">
    <path d="M256 160L256 224L384 224L384 160C384 124.7 355.3 96 320 96C284.7 96 256 124.7 256 160zM192 224L192 160C192 89.3 249.3 32 320 32C390.7 32 448 89.3 448 160L448 224C483.3 224 512 252.7 512 288L512 512C512 547.3 483.3 576 448 576L192 576C156.7 576 128 547.3 128 512L128 288C128 252.7 156.7 224 192 224z"></path>
  </symbol>
  <symbol xmlns="http://www.w3.org/2000/svg" viewBox="0 0 640 640" id="trash">
    <path d="M232.7 69.9L224 96L128 96C110.3 96 96 110.3 96 128C96 145.7 110.3 160 128 160L512 160C529.7 160 544 145.7 544 128C544 110.3 529.7 96 512 96L416 96L407.3 69.9C402.9 56.8 390.7 48 376.9 48L263.1 48C249.3 48 237.1 56.8 232.7 69.9zM512 208L128 208L149.1 531.1C150.7 556.4 171.7 576 197 576L443 576C468.3 576 489.3 556.4 490.9 531.1L512 208z"></path>
  </symbol>
</svg>

