<svg width="0" height="0" class="hidden">
  <symbol xmlns="http://www.w3.org/2000/svg" viewBox="0 0 640 640" id="babysitting">
    <path d="M128 272L128 352C128 405 171 448 224 448L416 448C469 448 512 405 512 352L512 240L552 240C565.3 240 576 229.3 576 216C576 202.7 565.3 192 552 192L488 192C474.7 192 464 202.7 464 216L464 272L128 272zM128.2 224L352 224L352 96C352 78.3 337.7 64 320 64L296 64C205.9 64 132.4 134.9 128.2 224zM224 528C224 501.5 202.5 480 176 480C149.5 480 128 501.5 128 528C128 554.5 149.5 576 176 576C202.5 576 224 554.5 224 528zM512 528C512 501.5 490.5 480 464 480C437.5 480 416 501.5 416 528C416 554.5 437.5 576 464 576C490.5 576 512 554.5 512 528z"></path>
  </symbol>
  <symbol xmlns="http://www.w3.org/2000/svg" viewBox="0 0 640 640" id="bar-drink">
    <path d="M155.6 81.3C163 67 179.9 60.4 195 65.9L320 111.5L445 65.9C460.1 60.4 477 67 484.4 81.3L563.2 234.2C592 290 573.5 356.5 524.7 390.8L556 477L597 462C613.6 456 632 464.5 638 481.1C644 497.7 635.5 516.1 618.9 522.1C571.5 539.4 524.1 556.6 476.7 573.9C460.1 580 441.7 571.4 435.7 554.8C429.7 538.2 438.2 519.8 454.8 513.8L495.8 498.8L464.5 412.6C405.1 417.8 348.3 378.7 334.5 317.4L319.9 252.7L305.3 317.4C291.5 378.7 234.7 417.8 175.3 412.6L144 498.8L185 513.8C201.6 519.9 210.2 538.2 204.1 554.8C198 571.4 179.7 580 163.1 573.9C115.7 556.6 68.3 539.3 20.9 522.1C4.3 516-4.3 497.7 1.8 481.1C7.9 464.5 26.3 456 42.9 462L83.9 477L115.2 390.8C66.5 356.5 48.1 290 76.9 234.2L155.6 81.3zM199.6 135.7L172.4 188.5L261.6 221L274.7 163.1L199.6 135.7zM440.5 135.7L365.4 163.1L378.5 221L467.7 188.5L440.5 135.7z"></path>
  </symbol>
  <symbol xmlns="http://www.w3.org/2000/svg" viewBox="0 0 640 640" id="catering">
    <path d="M127.9 78.4C127.1 70.2 120.2 64 112 64C103.8 64 96.9 70.2 96 78.3L81.9 213.7C80.6 219.7 80 225.8 80 231.9C80 277.8 115.1 315.5 160 319.6L160 544C160 561.7 174.3 576 192 576C209.7 576 224 561.7 224 544L224 319.6C268.9 315.5 304 277.8 304 231.9C304 225.8 303.4 219.7 302.1 213.7L287.9 78.3C287.1 70.2 280.2 64 272 64C263.8 64 256.9 70.2 256.1 78.4L242.5 213.9C241.9 219.6 237.1 224 231.4 224C225.6 224 220.8 219.6 220.2 213.8L207.9 78.6C207.2 70.3 200.3 64 192 64C183.7 64 176.8 70.3 176.1 78.6L163.8 213.8C163.3 219.6 158.4 224 152.6 224C146.8 224 142 219.6 141.5 213.9L127.9 78.4zM512 64C496 64 384 96 384 240L384 352C384 387.3 412.7 416 448 416L480 416L480 544C480 561.7 494.3 576 512 576C529.7 576 544 561.7 544 544L544 96C544 78.3 529.7 64 512 64z"></path>
  </symbol>
  <symbol xmlns="http://www.w3.org/2000/svg" viewBox="0 0 640 640" id="driver">
    <path d="M199.2 181.4L173.1 256L466.9 256L440.8 181.4C436.3 168.6 424.2 160 410.6 160L229.4 160C215.8 160 203.7 168.6 199.2 181.4zM103.6 260.8L138.8 160.3C152.3 121.8 188.6 96 229.4 96L410.6 96C451.4 96 487.7 121.8 501.2 160.3L536.4 260.8C559.6 270.4 576 293.3 576 320L576 512C576 529.7 561.7 544 544 544L512 544C494.3 544 480 529.7 480 512L480 480L160 480L160 512C160 529.7 145.7 544 128 544L96 544C78.3 544 64 529.7 64 512L64 320C64 293.3 80.4 270.4 103.6 260.8zM192 368C192 350.3 177.7 336 160 336C142.3 336 128 350.3 128 368C128 385.7 142.3 400 160 400C177.7 400 192 385.7 192 368zM480 400C497.7 400 512 385.7 512 368C512 350.3 497.7 336 480 336C462.3 336 448 350.3 448 368C448 385.7 462.3 400 480 400z"></path>
  </symbol>
  <symbol xmlns="http://www.w3.org/2000/svg" viewBox="0 0 640 640" id="laundry">
    <path d="M320.2 176C364.4 176 400.2 140.2 400.2 96L453.7 96C470.7 96 487 102.7 499 114.7L617.6 233.4C630.1 245.9 630.1 266.2 617.6 278.7L566.9 329.4C554.4 341.9 534.1 341.9 521.6 329.4L480.2 288L480.2 512C480.2 547.3 451.5 576 416.2 576L224.2 576C188.9 576 160.2 547.3 160.2 512L160.2 288L118.8 329.4C106.3 341.9 86 341.9 73.5 329.4L22.9 278.6C10.4 266.1 10.4 245.8 22.9 233.3L141.5 114.7C153.5 102.7 169.8 96 186.8 96L240.3 96C240.3 140.2 276.1 176 320.3 176z"></path>
  </symbol>
  <symbol xmlns="http://www.w3.org/2000/svg" viewBox="0 0 640 640" id="travel-plan">
    <path d="M128 252.6C128 148.4 214 64 320 64C426 64 512 148.4 512 252.6C512 371.9 391.8 514.9 341.6 569.4C329.8 582.2 310.1 582.2 298.3 569.4C248.1 514.9 127.9 371.9 127.9 252.6zM320 320C355.3 320 384 291.3 384 256C384 220.7 355.3 192 320 192C284.7 192 256 220.7 256 256C256 291.3 284.7 320 320 320z"></path>
  </symbol>
</svg>